James Bond goes on his first ever mission as a 00. Le Chiffre is a banker to the world's terrorists. He is participating in a poker game at Montenegro, where he must win back his money, in order to stay safe among the terrorist market. The boss of MI6, known simply as M sends Bond, along with Vesper Lynd to attend this game and prevent Le Chiffre from winning. Bond, using help from Felix Leiter, Mathis and having Vesper pose as his wife, enters the most important poker game in his already dangerous career.

Director: Martin Campbell
Writers: Neal Purvis (screenplay), Robert Wade (screenplay)
Stars: Daniel Craig, Eva Green and Judi Dench
 
http://www.imdb.com/title/tt0381061/

GENERAL
Format : Matroska
File size : 23.4 GiB
Duration : 2h 24mn
Overall bit rate : 23.2 Mbps

VIDEO
Format : AVC
Format/Info : Advanced Video Codec
Format profile : High@L4.1
Duration : 2h 24mn
Nominal bit rate : 20.5 Mbps
Width : 1 920 pixels
Height : 798 pixels
Display aspect ratio : 2.40:1
Frame rate : 23.976 fps
Scan type : Progressive

AUDIO
Audio #1
ID : 2
Format : DTS
Format/Info : Digital Theater Systems
Format profile : MA
Codec ID : A_DTS
Duration : 2h 24mn
Bit rate mode : Variable
Channel(s) : 6 channels
Channel positions : Front: L C R, Surround: L R, LFE
Sampling rate : 48.0 KHz
Resolution : 16 bits
Language : English

Audio #2
ID : 3
Format : AC-3
Format/Info : Audio Coding 3
Format profile : Dolby Digital
Codec ID : A_AC3
Duration : 2h 24mn
Bit rate mode : Constant
Bit rate : 192 Kbps
Channel(s) : 2 channels
Channel positions : L R
Sampling rate : 48.0 KHz
Stream size : 199 MiB (1%)
Language : English

Audio #3
ID : 4
Format : AC-3
Format/Info : Audio Coding 3
Format profile : Dolby Digital
Codec ID : A_AC3
Duration : 2h 24mn
Bit rate mode : Constant
Bit rate : 192 Kbps
Channel(s) : 2 channels
Channel positions : L R
Sampling rate : 48.0 KHz
Stream size : 199 MiB (1%)
Language : English


Subtitles : English, Dutch

Notes:
******
So This is the second version of this movie, Because this one has a DTS TRUEHD and 2 commentary tracks on it..
So this is the best of the best...
(Casino Royale UnCut 2006 HK Blu-ray 1080p AVC TrueHD 5.1) http://www.blu-ray.com/movies/Casino-Royale-Blu-ray/1150/